<?xml version="1.0" standalone="no"?>
<!DOCTYPE svg PUBLIC "-//W3C//DTD SVG 20010904//EN"
 "http://www.w3.org/TR/2001/REC-SVG-20010904/DTD/svg10.dtd">
<svg version="1.0" xmlns="http://www.w3.org/2000/svg"
 width="300.000000pt" height="300.000000pt" viewBox="0 0 300.000000 300.000000"
 preserveAspectRatio="xMidYMid meet">
<metadata>
Created by potrace 1.10, written by Peter Selinger 2001-2011
</metadata>
<g transform="translate(0.000000,300.000000) scale(0.100000,-0.100000)"
fill="#000000" stroke="none">
<path d="M1482 2118 c3 -181 5 -213 18 -213 13 0 15 31 18 213 2 208 2 212
-18 212 -20 0 -21 -4 -18 -212z"/>
<path d="M1120 2222 c0 -25 159 -347 171 -347 8 0 13 8 11 18 -7 39 -156 337
-169 337 -7 0 -13 -4 -13 -8z"/>
<path d="M1815 2153 c-96 -201 -126 -276 -113 -284 9 -6 19 5 35 39 12 26 49
105 83 176 55 118 63 146 41 146 -5 0 -26 -35 -46 -77z"/>
<path d="M1361 2061 c-20 -13 16 -161 40 -161 15 0 15 5 2 58 -8 31 -18 69
-21 84 -5 20 -11 25 -21 19z"/>
<path d="M1626 2059 c-9 -26 -36 -137 -36 -148 0 -6 6 -11 14 -11 18 0 53 147
38 162 -8 8 -13 7 -16 -3z"/>
<path d="M860 1998 c0 -22 269 -272 276 -255 3 9 -41 59 -121 138 -122 120
-155 145 -155 117z"/>
<path d="M1999 1894 c-68 -64 -130 -122 -138 -130 -13 -11 -12 -14 3 -20 12
-5 38 13 94 68 42 40 103 97 136 125 50 44 65 73 37 73 -4 0 -63 -52 -132
-116z"/>
<path d="M1826 1886 c-50 -70 -53 -76 -32 -76 17 0 107 120 100 132 -11 17
-25 5 -68 -56z"/>
<path d="M1106 1928 c4 -7 26 -37 47 -66 36 -48 56 -60 60 -38 4 16 -79 115
-96 116 -12 0 -16 -4 -11 -12z"/>
<path d="M1422 1849 c-154 -26 -296 -161 -336 -318 l-12 -46 -45 5 c-131 13
-329 -8 -328 -35 0 -6 21 -8 52 -5 29 3 115 5 192 5 124 -1 159 -5 307 -38
215 -48 299 -49 471 -8 194 47 248 54 375 47 65 -3 136 -9 160 -12 33 -5 42
-3 42 9 0 23 -108 39 -251 39 l-127 -1 -5 32 c-9 58 -60 149 -112 202 -98 101
-244 148 -383 124z m233 -60 c84 -32 181 -131 212 -214 34 -90 35 -87 -27
-100 -30 -7 -102 -25 -159 -40 -133 -35 -227 -32 -434 15 -167 39 -158 28
-107 135 52 108 124 173 239 217 65 25 196 19 276 -13z"/>
<path d="M940 1736 c0 -17 126 -90 140 -81 16 10 3 22 -64 60 -71 39 -76 41
-76 21z"/>
<path d="M1987 1716 c-72 -41 -84 -53 -71 -66 13 -13 138 61 142 84 5 22 -5
20 -71 -18z"/>
<path d="M712 1685 c4 -22 319 -137 330 -121 11 16 4 20 -147 76 -175 65 -188
68 -183 45z"/>
<path d="M2110 1641 c-101 -37 -155 -62 -155 -72 0 -8 5 -14 10 -14 6 0 82 25
168 55 122 43 157 59 157 73 0 9 -6 17 -12 16 -7 0 -83 -26 -168 -58z"/>
<path d="M1032 1395 c3 -20 45 -34 188 -65 194 -42 408 -36 626 15 117 28 151
42 137 56 -7 7 -47 1 -112 -16 -131 -33 -277 -55 -366 -55 -108 0 -334 38
-458 76 -14 4 -18 1 -15 -11z"/>
<path d="M484 1231 c-22 -10 -57 -38 -78 -62 -31 -37 -36 -50 -34 -84 2 -29 8
-41 21 -43 13 -3 17 3 17 25 0 39 32 87 81 123 78 56 76 15 -10 -180 -28 -63
-51 -125 -51 -137 0 -31 36 -31 44 0 3 12 27 62 53 112 49 90 139 195 169 195
19 0 17 -7 -48 -169 -27 -68 -47 -130 -44 -137 12 -31 35 -10 71 62 38 79 151
211 173 203 7 -3 -5 -42 -35 -109 -49 -113 -62 -174 -44 -209 12 -21 51 -28
85 -15 28 11 17 24 -16 22 -33 -3 -33 -3 -31 39 1 23 20 85 42 139 45 108 51
148 22 163 -23 13 -97 -32 -126 -78 -29 -45 -46 -46 -24 -1 20 42 27 89 15
108 -16 26 -65 13 -111 -29 l-45 -42 6 45 c6 40 3 47 -17 62 -29 20 -35 20
-85 -3z"/>
<path d="M1963 1178 c-59 -61 -100 -132 -114 -195 -10 -45 -19 -59 -48 -79
-34 -23 -36 -23 -39 -6 -2 11 6 43 17 73 24 63 25 69 8 69 -6 0 -23 -20 -36
-44 -23 -45 -87 -116 -103 -116 -18 0 -6 50 26 102 26 43 30 58 20 62 -8 3
-21 -6 -31 -21 -40 -59 -74 -83 -115 -83 l-40 0 56 62 c85 93 118 177 74 186
-36 7 -135 -124 -158 -209 -6 -21 -25 -50 -45 -68 -77 -67 -73 -24 12 145 37
74 64 136 60 140 -15 16 -39 -10 -76 -84 -37 -74 -41 -78 -68 -75 -37 6 -89
-30 -126 -85 -31 -46 -61 -67 -83 -58 -12 4 -10 15 7 61 36 96 3 114 -69 38
-27 -27 -43 -39 -39 -27 19 63 19 64 4 64 -8 0 -25 -21 -38 -47 -29 -56 -93
-113 -110 -96 -9 9 -4 27 20 72 34 66 39 91 17 91 -17 0 -62 -84 -71 -133 -8
-40 6 -67 32 -67 8 0 30 12 49 27 l35 26 -6 -26 c-10 -37 19 -37 39 1 19 36
102 128 110 122 3 -3 -2 -26 -10 -50 -26 -74 15 -117 70 -75 17 13 21 13 33
-5 22 -31 48 -24 94 23 32 32 40 37 34 20 -9 -32 3 -63 24 -63 10 0 30 9 44
20 l26 21 -15 -45 c-19 -55 -15 -115 8 -130 40 -25 109 92 95 162 -5 26 -3 29
33 39 l39 10 3 -36 c4 -49 34 -53 81 -11 35 30 36 31 39 8 4 -32 39 -34 74 -5
l29 25 17 -29 c25 -42 67 -39 117 6 32 29 38 32 34 15 -6 -23 12 -50 35 -50 8
0 30 11 49 25 33 26 33 26 30 4 -4 -36 18 -32 46 9 15 20 45 56 68 77 37 36
41 37 34 15 -15 -52 -17 -91 -5 -105 17 -21 54 -19 75 5 18 20 18 20 29 -2 18
-36 44 -34 88 9 31 30 39 33 34 17 -7 -24 15 -54 41 -54 19 0 103 82 103 100
0 7 -20 -6 -45 -29 -24 -22 -49 -41 -54 -41 -22 0 -20 22 4 69 30 60 30 61 5
61 -10 0 -24 -10 -31 -21 -19 -36 -91 -109 -106 -109 -12 0 -13 7 -8 28 15 63
90 127 134 115 17 -4 20 -2 15 11 -10 25 -61 20 -102 -11 -21 -15 -55 -49 -78
-77 -39 -50 -84 -73 -84 -43 0 7 7 35 16 60 16 48 14 77 -6 77 -6 0 -36 -23
-66 -51 -57 -55 -63 -56 -38 -8 18 37 12 68 -11 49 -8 -6 -19 -27 -25 -45 -12
-37 -81 -105 -106 -105 -19 0 -13 25 27 99 16 29 26 58 23 62 -13 21 -35 6
-58 -39 -28 -55 -97 -122 -126 -122 -22 0 -43 32 -34 54 3 8 36 46 74 84 73
75 112 150 93 181 -18 28 -37 23 -80 -21z m38 -55 c-26 -49 -111 -143 -111
-123 0 38 122 208 128 177 2 -8 -6 -33 -17 -54z m-382 -5 c-19 -37 -81 -119
-86 -114 -6 6 34 84 65 125 27 36 42 29 21 -11z m-239 -108 c0 -12 -80 -110
-102 -124 -30 -19 -34 5 -7 52 28 52 109 105 109 72z m128 -145 c4 -35 -24
-111 -43 -119 -20 -7 -19 11 2 90 18 66 35 79 41 29z"/>
<path d="M955 1120 c-8 -13 4 -50 16 -50 11 0 29 41 22 53 -6 10 -31 9 -38 -3z"/>
<path d="M2086 1115 c-6 -18 2 -45 15 -45 12 0 31 39 24 50 -9 15 -32 12 -39
-5z"/>
</g>
</svg>
