<?xml version="1.0" standalone="no"?>
<!DOCTYPE svg PUBLIC "-//W3C//DTD SVG 20010904//EN"
 "http://www.w3.org/TR/2001/REC-SVG-20010904/DTD/svg10.dtd">
<svg version="1.0" xmlns="http://www.w3.org/2000/svg"
 width="300.000000pt" height="300.000000pt" viewBox="0 0 300.000000 300.000000"
 preserveAspectRatio="xMidYMid meet">
<metadata>
Created by potrace 1.10, written by Peter Selinger 2001-2011
</metadata>
<g transform="translate(0.000000,300.000000) scale(0.100000,-0.100000)"
fill="#D4A437" stroke="none">
<path d="M1482 2118 c3 -181 5 -213 18 -213 13 0 15 31 18 213 2 208 2 212
-18 212 -20 0 -21 -4 -18 -212z"/>
<path d="M1120 2222 c0 -25 159 -347 171 -347 8 0 13 8 11 18 -7 39 -156 337
-169 337 -7 0 -13 -4 -13 -8z"/>
<path d="M1815 2153 c-96 -201 -126 -276 -113 -284 9 -6 19 5 35 39 12 26 49
105 83 176 55 118 63 146 41 146 -5 0 -26 -35 -46 -77z"/>
<path d="M1361 2061 c-20 -13 16 -161 40 -161 15 0 15 5 2 58 -8 31 -18 69
-21 84 -5 20 -11 25 -21 19z"/>
<path d="M1626 2059 c-9 -26 -36 -137 -36 -148 0 -6 6 -11 14 -11 18 0 53 147
38 162 -8 8 -13 7 -16 -3z"/>
<path d="M860 1998 c0 -22 269 -272 276 -255 3 9 -41 59 -121 138 -122 120
-155 145 -155 117z"/>
<path d="M1999 1894 c-68 -64 -130 -122 -138 -130 -13 -11 -12 -14 3 -20 12
-5 38 13 94 68 42 40 103 97 136 125 50 44 65 73 37 73 -4 0 -63 -52 -132
-116z"/>
<path d="M1826 1886 c-50 -70 -53 -76 -32 -76 17 0 107 120 100 132 -11 17
-25 5 -68 -56z"/>
<path d="M1106 1928 c4 -7 26 -37 47 -66 36 -48 56 -60 60 -38 4 16 -79 115
-96 116 -12 0 -16 -4 -11 -12z"/>
<path d="M1422 1849 c-154 -26 -296 -161 -336 -318 l-12 -46 -45 5 c-131 13
-329 -8 -328 -35 0 -6 21 -8 52 -5 29 3 115 5 192 5 124 -1 159 -5 307 -38
215 -48 299 -49 471 -8 194 47 248 54 375 47 65 -3 136 -9 160 -12 33 -5 42
-3 42 9 0 23 -108 39 -251 39 l-127 -1 -5 32 c-9 58 -60 149 -112 202 -98 101
-244 148 -383 124z m233 -60 c84 -32 181 -131 212 -214 34 -90 35 -87 -27
-100 -30 -7 -102 -25 -159 -40 -133 -35 -227 -32 -434 15 -167 39 -158 28
-107 135 52 108 124 173 239 217 65 25 196 19 276 -13z"/>
<path d="M940 1736 c0 -17 126 -90 140 -81 16 10 3 22 -64 60 -71 39 -76 41
-76 21z"/>
<path d="M1987 1716 c-72 -41 -84 -53 -71 -66 13 -13 138 61 142 84 5 22 -5
20 -71 -18z"/>
<path d="M712 1685 c4 -22 319 -137 330 -121 11 16 4 20 -147 76 -175 65 -188
68 -183 45z"/>
<path d="M2110 1641 c-101 -37 -155 -62 -155 -72 0 -8 5 -14 10 -14 6 0 82 25
168 55 122 43 157 59 157 73 0 9 -6 17 -12 16 -7 0 -83 -26 -168 -58z"/>
<path d="M1032 1395 c3 -20 45 -34 188 -65 194 -42 408 -36 626 15 117 28 151
42 137 56 -7 7 -47 1 -112 -16 -131 -33 -277 -55 -366 -55 -108 0 -334 38
-458 76 -14 4 -18 1 -15 -11z"/>


</g>
</svg>
